<?xml version="1.0" encoding="utf-8"?>
<!-- Generator: Adobe Illustrator 21.1.0, SVG Export Plug-In . SVG Version: 6.00 Build 0)  -->
<svg version="1.1" id="圖層_1" xmlns="http://www.w3.org/2000/svg" xmlns:xlink="http://www.w3.org/1999/xlink" x="0px" y="0px"
	 viewBox="0 0 70 60" style="enable-background:new 0 0 70 60;" xml:space="preserve">
<style type="text/css">
	.st0{display:none;}
	.st1{display:inline;}
	.st2{fill:#FFFFFF;}
</style>
<g class="st0">
	<path class="st1" d="M35.4,54.5c-7.2,0-14.4,0-21.6,0c-2.2,0-2.2-0.1-2.2-2.3c0-3.9-0.1-7.8,0-11.7c0.2-7.9,3.4-14,11-17.1
		c0.4-0.2,0.7-0.7,0.9-1.2c0.1-0.5,0-1,0-1.6c0-3.2,0-3.2,3.3-3.2c1.4,0,2.1,0.4,2.2,1.8c0.1,1.3,0.9,1.7,2.2,1.7
		c2.9-0.1,5.7-0.1,8.6,0c1.1,0,1.6-0.3,2-1.4c0.2-0.7,0.7-1.8,1.2-1.9c1.2-0.2,2.5-0.1,3.8,0.1c0.3,0.1,0.7,1.2,0.6,1.8
		c-0.4,2.5,0.5,3.9,3,5c5.3,2.3,8,6.9,8.6,12.4c0.6,5.3,0.3,10.8,0.5,16.2c0,1.4-1,1.3-2,1.3C50,54.5,42.7,54.5,35.4,54.5z"/>
	<path class="st1" d="M36,4.2c8,0.1,15.8,0.6,23.6,2.7c4,1.1,7.3,3.2,8.1,7.6c0.3,2.1,0.1,4.2-0.1,6.4c0,0.4-0.9,1.1-1.4,1.1
		c-4.5,0.1-9.1,0.1-13.6,0c-0.4,0-1-0.7-1.2-1.3c-0.2-0.6-0.1-1.4-0.1-2.1c0-2.8,0-2.8-2.7-3.6c-6.2-1.8-12.6-1.9-19-1.2
		c-2.7,0.3-5.3,1.2-7.9,1.8c-1,0.2-1.4,0.9-1.3,1.9c0,0.1,0,0.1,0,0.2c0,4.3,0,4.3-4.4,4.3c-3.3,0-6.6,0-9.9,0c-1.2,0-1.6-0.4-2-1.5
		C2.9,15.9,4.6,8.8,10.8,7.4c4.6-1,9.4-2,14.1-2.7C28.6,4.3,32.3,4.3,36,4.2z"/>
</g>
<circle class="st2" cx="27.5" cy="38.3" r="2.4"/>
<circle class="st2" cx="35.9" cy="38.3" r="2.4"/>
<circle class="st2" cx="44.4" cy="38.3" r="2.4"/>
<circle class="st2" cx="27.5" cy="45.7" r="2.4"/>
<circle class="st2" cx="35.9" cy="45.8" r="2.4"/>
<circle class="st2" cx="44.4" cy="45.8" r="2.4"/>
<circle class="st2" cx="27.5" cy="53.1" r="2.4"/>
<circle class="st2" cx="35.9" cy="53.1" r="2.4"/>
<circle class="st2" cx="44.4" cy="53.1" r="2.4"/>
<g>
	<path d="M35.4,59.6c-7,0-13.9,0-20.9,0c-2.1,0-2.2-0.1-2.2-2.2c0-3.8-0.1-7.5,0-11.3c0.2-7.6,3.2-13.5,10.6-16.5
		c0.4-0.2,0.7-0.7,0.8-1.1c0.1-0.5,0-1,0-1.5c0-3.1,0-3.1,3.2-3.1c1.3,0,2,0.4,2.2,1.7c0.1,1.2,0.8,1.7,2.2,1.6
		c2.8-0.1,5.5-0.1,8.2,0c1.1,0,1.6-0.3,1.9-1.4c0.2-0.7,0.7-1.7,1.2-1.8c1.2-0.2,2.5-0.1,3.6,0.1c0.3,0.1,0.6,1.2,0.6,1.7
		c-0.4,2.5,0.5,3.8,2.9,4.8c5.1,2.2,7.7,6.7,8.2,11.9c0.5,5.1,0.3,10.4,0.4,15.6c0,1.3-0.9,1.3-1.9,1.3
		C49.6,59.6,42.5,59.6,35.4,59.6z"/>
	<path d="M33.2,8.6c7.6-1,15.2-1.7,22.9-0.8c4,0.5,7.4,2,8.7,6.1c0.6,1.9,0.7,4,0.8,6.1c0,0.4-0.7,1.2-1.1,1.3
		c-4.3,0.7-8.6,1.4-13,2c-0.4,0.1-1.1-0.6-1.3-1c-0.3-0.6-0.3-1.3-0.4-2c-0.4-2.6-0.4-2.7-3-3.1c-6.2-0.9-12.3,0-18.2,1.5
		c-2.5,0.7-4.8,1.9-7.3,2.9c-0.9,0.4-1.2,1-0.9,2c0,0.1,0,0.1,0,0.2c0.6,4.1,0.6,4.1-3.6,4.7c-3.2,0.5-6.3,0.9-9.5,1.4
		c-1.1,0.2-1.6-0.2-2.1-1.1C3.3,24.5,4,17.5,9.6,15.3c4.3-1.6,8.6-3.3,13.1-4.5C26.1,9.8,29.7,9.3,33.2,8.6z"/>
</g>
<circle class="st2" cx="27.4" cy="38.1" r="2.4"/>
<circle class="st2" cx="35.9" cy="38.1" r="2.4"/>
<circle class="st2" cx="44.3" cy="38.1" r="2.4"/>
<circle class="st2" cx="27.4" cy="45.5" r="2.4"/>
<circle class="st2" cx="35.9" cy="45.6" r="2.4"/>
<circle class="st2" cx="44.3" cy="45.6" r="2.4"/>
<circle class="st2" cx="27.4" cy="52.9" r="2.4"/>
<circle class="st2" cx="35.9" cy="52.9" r="2.4"/>
<circle class="st2" cx="44.3" cy="52.9" r="2.4"/>
<path class="st0" d="M28.9,6.3c7-2.7,14.1-5.1,21.6-6.1c4-0.5,7.5,0.2,9.8,3.8c1,1.7,1.5,3.7,2.1,5.6c0.1,0.4-0.4,1.3-0.8,1.4
	c-3.9,1.7-7.9,3.3-11.9,4.8c-0.4,0.1-1.2-0.3-1.5-0.7c-0.4-0.5-0.6-1.2-0.8-1.8c-1-2.4-1-2.5-3.6-2.2c-6.1,0.6-11.7,2.8-17,5.7
	c-2.2,1.2-4.2,2.9-6.3,4.4c-0.8,0.6-0.9,1.3-0.4,2.1c0,0,0,0.1,0.1,0.2c1.5,3.8,1.5,3.8-2.3,5.4c-2.9,1.2-5.8,2.3-8.7,3.6
	c-1,0.4-1.6,0.2-2.2-0.6C4.1,28.3,3.1,21.5,8,18.2c3.7-2.6,7.4-5.1,11.4-7.3C22.4,9,25.7,7.7,28.9,6.3z"/>
</svg>
