<?xml version="1.0" standalone="no"?>
<!DOCTYPE svg PUBLIC "-//W3C//DTD SVG 20010904//EN"
 "http://www.w3.org/TR/2001/REC-SVG-20010904/DTD/svg10.dtd">
<svg version="1.0" xmlns="http://www.w3.org/2000/svg"
 width="1280.000000pt" height="682.000000pt" viewBox="0 0 1280.000000 682.000000"
 preserveAspectRatio="xMidYMid meet">
<g transform="translate(0.000000,682.000000) scale(0.100000,-0.100000)"
fill="#000000" stroke="none">
<path d="M6605 6815 c-5 -2 -102 -11 -214 -20 -551 -43 -1073 -137 -1646 -295
-412 -114 -925 -223 -1860 -394 -339 -63 -466 -100 -661 -195 -275 -135 -477
-309 -639 -551 -35 -52 -76 -121 -91 -152 -31 -65 -38 -68 -144 -68 -223 -1
-511 -73 -717 -179 -241 -124 -428 -327 -524 -566 -121 -303 -135 -673 -39
-1050 241 -951 1166 -1645 2430 -1824 184 -27 294 -34 580 -40 l305 -6 5 -640
c5 -634 5 -640 27 -681 30 -57 91 -108 157 -133 55 -20 71 -21 573 -21 499 0
518 1 573 21 116 42 172 118 189 257 6 45 19 99 30 119 23 45 82 104 131 129
34 18 99 19 1720 22 1870 3 1735 7 1819 -64 57 -49 88 -115 100 -213 6 -44 19
-98 30 -119 28 -54 89 -106 155 -131 55 -20 71 -21 573 -21 499 0 518 1 573
21 75 27 119 64 154 130 25 45 30 67 35 158 6 98 8 106 26 105 11 -1 103 -15
204 -33 419 -73 685 -96 1031 -88 255 6 366 18 547 62 347 83 594 272 694 529
38 98 72 285 66 361 -41 486 -416 780 -1177 919 -327 60 -608 80 -1095 80
-387 0 -588 -9 -954 -40 -162 -13 -176 -13 -193 3 -27 24 -121 222 -163 342
-71 208 -114 419 -140 690 -12 124 -15 349 -15 1164 l0 1010 73 -6 c147 -13
339 -73 436 -138 118 -79 158 -168 146 -326 -10 -139 -38 -262 -79 -346 -37
-77 -59 -101 -161 -172 -32 -22 -92 -76 -134 -121 -210 -221 -226 -448 -45
-643 198 -215 726 -637 1077 -861 308 -196 648 -366 816 -407 104 -26 305 -23
406 6 169 47 293 148 365 294 49 101 63 158 90 362 42 323 108 600 181 767 63
144 89 296 89 529 0 328 -77 644 -221 905 -152 275 -409 512 -715 660 -196 95
-335 134 -749 208 -751 136 -1351 263 -1749 373 -583 159 -1074 248 -1651 299
-176 16 -607 29 -630 19z m-1345 -899 c53 -20 90 -52 90 -79 0 -30 -60 -82
-122 -105 -31 -11 -96 -29 -145 -38 -205 -39 -423 17 -423 108 0 43 89 92 225
123 84 20 314 14 375 -9z m3487 4 c147 -35 203 -69 203 -122 0 -64 -89 -106
-246 -115 -146 -9 -329 36 -400 99 -68 60 -35 113 91 144 81 20 257 17 352 -6z
m-1637 -375 c359 -24 838 -83 1100 -135 70 -14 100 -25 113 -41 24 -30 21 -61
-8 -89 -28 -26 -7 -27 -275 19 -335 57 -793 105 -1119 118 -310 11 -874 -39
-1368 -122 -114 -19 -214 -35 -220 -35 -23 0 -53 39 -53 69 0 48 34 65 177 90
426 75 1003 136 1323 139 63 1 212 -5 330 -13z m-2550 -1113 c0 -1002 -4
-1127 -41 -1387 -82 -569 -297 -992 -609 -1200 -124 -82 -197 -107 -405 -136
-97 -13 -574 -13 -725 0 -707 64 -1289 269 -1750 615 -111 83 -298 261 -381
362 -168 205 -298 458 -360 697 -87 340 -75 693 34 947 46 106 99 183 186 270
125 124 280 208 490 264 111 30 349 62 362 49 5 -5 -1 -53 -15 -118 -39 -177
-49 -285 -43 -502 5 -236 21 -326 82 -468 81 -190 148 -481 190 -826 26 -219
75 -338 185 -450 72 -73 167 -126 280 -156 91 -24 299 -23 395 2 195 50 575
248 916 476 367 245 933 717 1021 851 89 137 98 269 26 413 -55 112 -172 239
-284 311 -69 44 -117 103 -148 178 -58 145 -83 389 -51 487 38 113 183 212
390 263 112 28 139 32 208 35 l47 1 0 -978z m2468 717 c618 -67 1143 -388
1362 -834 278 -565 39 -1194 -588 -1549 -721 -409 -1738 -306 -2303 231 -185
177 -300 367 -360 600 -20 74 -23 112 -23 243 1 134 5 168 28 255 63 240 209
463 416 637 269 226 627 373 1015 416 114 13 339 14 453 1z m-4125 -685 c93
-48 138 -112 117 -165 -18 -42 -162 -149 -201 -149 -43 0 -84 25 -97 57 -35
90 -25 192 24 241 27 27 39 32 78 32 26 0 61 -7 79 -16z m7959 -4 c40 -31 51
-70 46 -166 -4 -74 -8 -88 -29 -110 -14 -13 -42 -27 -63 -31 -33 -5 -45 0
-107 42 -121 83 -143 127 -93 192 61 80 189 118 246 73z m-7676 -306 c57 -27
134 -163 134 -236 0 -50 -42 -128 -94 -176 -74 -68 -136 -80 -197 -39 -27 18
-42 44 -79 132 -31 77 -45 124 -45 159 0 45 3 51 45 89 52 46 133 87 173 87
16 0 44 -7 63 -16z m7410 -19 c113 -66 138 -115 106 -205 -51 -146 -83 -209
-116 -230 -88 -54 -217 14 -271 143 -31 74 -7 174 62 265 51 67 134 77 219 27z
m-6310 -60 c25 -39 14 -131 -27 -213 -25 -51 -64 -98 -183 -220 -517 -529
-1179 -961 -1664 -1083 -129 -33 -309 -53 -385 -43 -64 9 -107 46 -107 94 0
46 36 75 121 100 290 83 712 276 977 446 150 97 544 406 941 738 112 94 215
179 230 188 38 26 77 23 97 -7z m5157 -2 c19 -16 113 -93 209 -173 317 -266
722 -589 868 -692 246 -173 713 -396 1017 -487 127 -37 137 -43 153 -81 16
-38 0 -81 -39 -107 -37 -25 -219 -22 -361 7 -494 100 -1167 518 -1715 1065
-154 153 -209 222 -235 299 -22 60 -26 146 -10 177 16 29 69 25 113 -8z m1434
-2053 c771 -32 1286 -172 1529 -414 115 -116 159 -223 159 -391 0 -128 -14
-192 -62 -294 -105 -221 -385 -361 -808 -402 -152 -15 -571 -6 -755 15 -254
30 -638 95 -687 116 l-22 9 -3 438 c-3 387 -5 442 -20 474 -42 90 -115 142
-222 159 -78 12 -165 45 -239 91 -75 46 -177 129 -177 144 0 17 40 22 345 40
407 24 651 28 962 15z m-1518 -96 c56 -48 100 -92 98 -98 -3 -8 -702 -12
-2650 -14 -2262 -2 -2647 0 -2647 12 0 12 72 81 168 159 l34 27 2447 0 2447 0
103 -86z m432 -237 c44 -20 199 -140 199 -154 0 -11 -585 -13 -3179 -13 -1985
0 -3182 4 -3186 9 -5 9 173 151 205 164 8 3 1347 6 2975 6 2288 0 2966 -3
2986 -12z"/>
<path d="M6601 4969 c-550 -58 -1024 -347 -1216 -742 -292 -601 136 -1268 943
-1471 227 -57 533 -73 759 -40 594 88 1057 421 1198 864 23 71 28 109 32 225
6 178 -13 271 -91 430 -246 500 -925 807 -1625 734z m334 -213 c55 -25 101
-72 111 -112 10 -40 -2 -110 -24 -141 -11 -16 -44 -42 -72 -57 -143 -78 -341
-19 -380 112 -19 61 -2 110 55 160 55 48 90 60 185 61 59 1 86 -4 125 -23z
m-767 -201 c57 -17 115 -62 138 -106 18 -36 18 -102 0 -137 -57 -109 -230
-151 -359 -88 -148 72 -154 236 -12 309 77 39 151 46 233 22z m1456 1 c174
-53 213 -210 78 -313 -100 -76 -263 -65 -355 25 -151 147 50 356 277 288z
m-739 -467 c113 -21 203 -82 241 -164 29 -61 30 -116 4 -170 -24 -52 -35 -64
-91 -107 -131 -99 -366 -89 -491 21 -104 91 -104 240 0 333 51 47 87 65 159
82 73 18 104 19 178 5z m-1012 -91 c80 -34 138 -122 122 -186 -12 -51 -54
-101 -108 -129 -45 -24 -64 -28 -137 -28 -76 0 -91 3 -139 30 -88 49 -126 129
-96 201 51 123 212 173 358 112z m2125 -5 c62 -29 102 -77 109 -132 7 -54 -2
-84 -39 -126 -90 -103 -272 -114 -382 -23 -123 101 -62 267 112 304 73 15 134
8 200 -23z m-1781 -547 c69 -38 96 -77 101 -146 3 -49 0 -60 -26 -96 -84 -115
-285 -131 -397 -32 -82 72 -86 162 -10 234 58 56 111 74 205 71 60 -3 86 -9
127 -31z m1428 18 c59 -21 120 -80 134 -131 32 -117 -82 -225 -239 -225 -119
0 -213 59 -241 152 -23 77 38 169 136 204 55 20 151 19 210 0z m-712 -227 c52
-21 103 -73 113 -113 11 -42 -2 -109 -26 -142 -34 -46 -112 -84 -184 -89 -121
-10 -228 44 -261 132 -23 59 -13 106 31 155 77 85 206 108 327 57z"/>
</g>
</svg>
